<?xml version="1.0" encoding="UTF-8" standalone="no"?>
<!-- Created with Inkscape (http://www.inkscape.org/) -->

<svg
   xmlns:dc="http://purl.org/dc/elements/1.1/"
   xmlns:cc="http://creativecommons.org/ns#"
   xmlns:rdf="http://www.w3.org/1999/02/22-rdf-syntax-ns#"
   xmlns:svg="http://www.w3.org/2000/svg"
   xmlns="http://www.w3.org/2000/svg"
   xmlns:sodipodi="http://sodipodi.sourceforge.net/DTD/sodipodi-0.dtd"
   xmlns:inkscape="http://www.inkscape.org/namespaces/inkscape"
   width="128"
   height="128"
   id="svg2"
   version="1.1"
   inkscape:version="0.48.4 r9939"
   inkscape:export-filename="/home/martijn/Desktop/test.png"
   inkscape:export-xdpi="33.75"
   inkscape:export-ydpi="33.75"
   sodipodi:docname="New document 1">
  <defs
     id="defs4" />
  <sodipodi:namedview
     id="base"
     pagecolor="#ffffff"
     bordercolor="#666666"
     borderopacity="1.0"
     inkscape:pageopacity="0.0"
     inkscape:pageshadow="2"
     inkscape:zoom="1.979899"
     inkscape:cx="204.64182"
     inkscape:cy="65.164049"
     inkscape:document-units="px"
     inkscape:current-layer="layer1"
     showgrid="false"
     showguides="true"
     inkscape:guide-bbox="true"
     inkscape:snap-bbox="true"
     inkscape:window-width="1920"
     inkscape:window-height="1058"
     inkscape:window-x="1919"
     inkscape:window-y="-1"
     inkscape:window-maximized="1" />
  <metadata
     id="metadata7">
    <rdf:RDF>
      <cc:Work
         rdf:about="">
        <dc:format>image/svg+xml</dc:format>
        <dc:type
           rdf:resource="http://purl.org/dc/dcmitype/StillImage" />
        <dc:title></dc:title>
      </cc:Work>
    </rdf:RDF>
  </metadata>
  <g
     inkscape:label="Layer 1"
     inkscape:groupmode="layer"
     id="layer1"
     transform="translate(0,-924.36218)">
    <rect
       style="fill:#373737;fill-opacity:1;stroke:none"
       id="rect3101"
       width="96.722107"
       height="95.964493"
       x="15.909902"
       y="941.24542"
       ry="9.0913725" />
    <text
       xml:space="preserve"
       style="font-size:40px;font-style:normal;font-weight:normal;line-height:125%;letter-spacing:0px;word-spacing:0px;fill:#000000;fill-opacity:1;stroke:none;font-family:Sans"
       x="22.493841"
       y="1020.4379"
       id="text3103"
       sodipodi:linespacing="125%"><tspan
         sodipodi:role="line"
         id="tspan3105"
         x="22.493841"
         y="1020.4379"
         style="font-size:40px;font-style:normal;font-variant:normal;font-weight:normal;font-stretch:normal;fill:#ffffff;font-family:Droid Sans;-inkscape-font-specification:Droid Sans">OBD</tspan></text>
    <path
       style="fill:#a5a5a5;fill-opacity:1;stroke:none"
       d="m 25.001273,940.86667 78.539367,0 c 5.03662,0 9.09137,4.05476 9.09137,9.09138 l 0,3.7817 c 0,5.0367 -4.05475,9.0914 -9.09137,9.0914 l -78.539367,0 c -5.03662,0 -9.091372,-4.0547 -9.091372,-9.0914 l 0,-3.7817 c 0,-5.03662 4.054752,-9.09138 9.091372,-9.09138 z"
       id="rect3101-4"
       inkscape:connector-curvature="0"
       sodipodi:nodetypes="sssssssss" />
    <path
       style="fill:#222222;fill-opacity:1;stroke:none"
       d="m 28.968353,944.31157 71.103937,0 c 4.55979,0 8.23068,2.74974 8.23068,6.16533 l 0,2.56456 c 0,3.41564 -3.67089,6.16534 -8.23068,6.16534 l -71.103937,0 c -4.559795,0 -8.230679,-2.7497 -8.230679,-6.16534 l 0,-2.56456 c 0,-3.41559 3.670884,-6.16533 8.230679,-6.16533 z"
       id="rect3101-4-7"
       inkscape:connector-curvature="0"
       sodipodi:nodetypes="sssssssss" />
    <rect
       style="fill:#808080;fill-opacity:1;stroke:none"
       id="rect4173"
       width="73.488594"
       height="7.9549522"
       x="27.652925"
       y="951.2207"
       ry="0" />
    <path
       style="fill:#ffff00;fill-opacity:1;stroke:none"
       d="m 32.50186,955.23016 3.197876,0 c 0.926878,0 1.673065,0.74619 1.673065,1.67307 -0.0018,0.76238 0.0066,1.52474 0.0122,2.28709 l -6.557251,0 c 6.78e-4,-0.76236 9.36e-4,-1.52473 10e-4,-2.28709 0,-0.92688 0.746188,-1.67307 1.673066,-1.67307 z"
       id="rect4175"
       inkscape:connector-curvature="0"
       sodipodi:nodetypes="csccccsc" />
    <path
       style="fill:#ffff00;fill-opacity:1;stroke:none"
       d="m 42.190127,955.20353 3.197876,0 c 0.926878,0 1.673065,0.74619 1.673065,1.67307 -0.0018,0.76238 0.0066,1.52474 0.0122,2.28709 l -6.557251,0 c 6.78e-4,-0.76236 9.36e-4,-1.52473 0.001,-2.28709 0,-0.92688 0.746188,-1.67307 1.673066,-1.67307 z"
       id="rect4175-7"
       inkscape:connector-curvature="0"
       sodipodi:nodetypes="csccccsc" />
    <path
       style="fill:#ffff00;fill-opacity:1;stroke:none"
       d="m 52.815127,955.24818 3.197876,0 c 0.926878,0 1.673065,0.74619 1.673065,1.67307 -0.0018,0.76238 0.0066,1.52474 0.0122,2.28709 l -6.557251,0 c 6.78e-4,-0.76236 9.36e-4,-1.52473 0.001,-2.28709 0,-0.92688 0.746188,-1.67307 1.673066,-1.67307 z"
       id="rect4175-4"
       inkscape:connector-curvature="0"
       sodipodi:nodetypes="csccccsc" />
    <path
       style="fill:#ffff00;fill-opacity:1;stroke:none"
       d="m 63.261556,955.20353 3.197876,0 c 0.926878,0 1.673065,0.74619 1.673065,1.67307 -0.0018,0.76238 0.0066,1.52474 0.0122,2.28709 l -6.557251,0 c 6.78e-4,-0.76236 9.36e-4,-1.52473 10e-4,-2.28709 0,-0.92688 0.746188,-1.67307 1.673066,-1.67307 z"
       id="rect4175-9"
       inkscape:connector-curvature="0"
       sodipodi:nodetypes="csccccsc" />
    <path
       style="fill:#ffff00;fill-opacity:1;stroke:none"
       d="m 73.797271,955.15889 3.197876,0 c 0.926878,0 1.673065,0.74619 1.673065,1.67307 -0.0018,0.76238 0.0066,1.52474 0.0122,2.28709 l -6.557251,0 c 6.78e-4,-0.76236 9.36e-4,-1.52473 0.001,-2.28709 0,-0.92688 0.746188,-1.67307 1.673066,-1.67307 z"
       id="rect4175-40"
       inkscape:connector-curvature="0"
       sodipodi:nodetypes="csccccsc" />
    <path
       style="fill:#ffff00;fill-opacity:1;stroke:none"
       d="m 84.199056,955.15889 3.197876,0 c 0.926878,0 1.673065,0.74619 1.673065,1.67307 -0.0018,0.76238 0.0066,1.52474 0.0122,2.28709 l -6.557251,0 c 6.78e-4,-0.76236 9.36e-4,-1.52473 0.001,-2.28709 0,-0.92688 0.746188,-1.67307 1.673066,-1.67307 z"
       id="rect4175-402"
       inkscape:connector-curvature="0"
       sodipodi:nodetypes="csccccsc" />
    <path
       style="fill:#ffff00;fill-opacity:1;stroke:none"
       d="m 94.377628,955.15888 3.197876,0 c 0.926878,0 1.673065,0.74619 1.673065,1.67307 -0.0018,0.76238 0.0066,1.52474 0.0122,2.28709 l -6.557251,0 c 6.78e-4,-0.76236 9.36e-4,-1.52473 10e-4,-2.28709 0,-0.92688 0.746188,-1.67307 1.673066,-1.67307 z"
       id="rect4175-43"
       inkscape:connector-curvature="0"
       sodipodi:nodetypes="csccccsc" />
    <path
       style="fill:#ffff00;fill-opacity:1;stroke:none"
       d="m 37.665165,947.28341 3.197876,0 c 0.926878,0 1.673065,0.74619 1.673065,1.67307 -0.0018,0.76238 0.0066,1.52474 0.0122,2.28709 l -6.557251,0 c 6.78e-4,-0.76236 9.36e-4,-1.52473 10e-4,-2.28709 0,-0.92688 0.746188,-1.67307 1.673066,-1.67307 z"
       id="rect4175-2"
       inkscape:connector-curvature="0"
       sodipodi:nodetypes="csccccsc" />
    <path
       style="fill:#ffff00;fill-opacity:1;stroke:none"
       d="m 47.829824,947.22027 3.197876,0 c 0.926878,0 1.673065,0.74619 1.673065,1.67307 -0.0018,0.76238 0.0066,1.52474 0.0122,2.28709 l -6.557251,0 c 6.78e-4,-0.76236 9.36e-4,-1.52473 10e-4,-2.28709 0,-0.92688 0.746188,-1.67307 1.673066,-1.67307 z"
       id="rect4175-23"
       inkscape:connector-curvature="0"
       sodipodi:nodetypes="csccccsc" />
    <path
       style="fill:#ffff00;fill-opacity:1;stroke:none"
       d="m 57.805081,947.22027 3.197876,0 c 0.926878,0 1.673065,0.74619 1.673065,1.67307 -0.0018,0.76238 0.0066,1.52474 0.0122,2.28709 l -6.557251,0 c 6.78e-4,-0.76236 9.36e-4,-1.52473 10e-4,-2.28709 0,-0.92688 0.746188,-1.67307 1.673066,-1.67307 z"
       id="rect4175-21"
       inkscape:connector-curvature="0"
       sodipodi:nodetypes="csccccsc" />
    <path
       style="fill:#ffff00;fill-opacity:1;stroke:none"
       d="m 68.222279,947.2834 3.197876,0 c 0.926878,0 1.673065,0.74619 1.673065,1.67307 -0.0018,0.76238 0.0066,1.52474 0.0122,2.28709 l -6.557251,0 c 6.78e-4,-0.76236 9.36e-4,-1.52473 0.001,-2.28709 0,-0.92688 0.746188,-1.67307 1.673066,-1.67307 z"
       id="rect4175-6"
       inkscape:connector-curvature="0"
       sodipodi:nodetypes="csccccsc" />
    <path
       style="fill:#ffff00;fill-opacity:1;stroke:none"
       d="m 78.576343,947.22027 3.197876,0 c 0.926878,0 1.673065,0.74619 1.673065,1.67307 -0.0018,0.76238 0.0066,1.52474 0.0122,2.28709 l -6.557251,0 c 6.78e-4,-0.76236 9.36e-4,-1.52473 0.001,-2.28709 0,-0.92688 0.746188,-1.67307 1.673066,-1.67307 z"
       id="rect4175-1"
       inkscape:connector-curvature="0"
       sodipodi:nodetypes="csccccsc" />
    <path
       style="fill:#ffff00;fill-opacity:1;stroke:none"
       d="m 88.677869,947.22027 3.197876,0 c 0.926878,0 1.673065,0.74619 1.673065,1.67307 -0.0018,0.76238 0.0066,1.52474 0.0122,2.28709 l -6.557251,0 c 6.78e-4,-0.76236 9.36e-4,-1.52473 0.001,-2.28709 0,-0.92688 0.746188,-1.67307 1.673066,-1.67307 z"
       id="rect4175-24"
       inkscape:connector-curvature="0"
       sodipodi:nodetypes="csccccsc" />
  </g>
</svg>
